<svg width="76" height="77" viewBox="0 0 76 77" fill="none" xmlns="http://www.w3.org/2000/svg">
<path d="M47.061 70.6619H70.015V67.8794C68.5902 66.1776 66.8763 64.871 64.8734 63.9596C62.8678 63.0509 60.756 62.5965 58.538 62.5965C56.32 62.5965 54.2069 63.0509 52.1986 63.9596C50.1904 64.8683 48.4765 66.1735 47.057 67.8753L47.061 70.6619ZM58.538 59.1849C59.9575 59.1849 61.166 58.6875 62.1634 57.6928C63.1581 56.6954 63.6555 55.4856 63.6555 54.0634C63.6555 52.6412 63.1581 51.4327 62.1634 50.438C61.1687 49.4433 59.9589 48.9459 58.534 48.9459C57.1145 48.9459 55.906 49.4433 54.9086 50.438C53.9139 51.4327 53.4165 52.6425 53.4165 54.0674C53.4165 55.4869 53.9139 56.694 54.9086 57.6888C55.9033 58.6835 57.1131 59.1849 58.538 59.1849ZM35.7816 26.4556C32.9694 26.4556 30.5861 27.4329 28.6316 29.3874C26.6771 31.3419 25.6999 33.7252 25.6999 36.5373C25.6999 38.7311 26.2846 40.6493 27.4541 42.292C28.6209 43.9373 30.1398 45.1525 32.011 45.9375C32.0648 45.2197 32.1468 44.5167 32.257 43.8284C32.3672 43.1402 32.5621 42.5084 32.8418 41.9331C31.7986 41.4492 31.019 40.7098 30.5028 39.7151C29.9893 38.7231 29.7325 37.6638 29.7325 36.5373C29.7325 34.8571 30.32 33.4295 31.4948 32.2546C32.6697 31.0798 34.0986 30.491 35.7816 30.4883C36.8919 30.4883 37.9135 30.7666 38.8464 31.3231C39.782 31.8769 40.5254 32.6162 41.0765 33.541C41.5604 33.2588 42.0618 33.0504 42.5807 32.916C43.1049 32.7816 43.6413 32.7144 44.1897 32.7144H45.0245C44.3067 30.8593 43.109 29.3524 41.4314 28.1937C39.7538 27.035 37.8705 26.4556 35.7816 26.4556ZM28.3655 72.8315L26.9097 61.169C25.6219 60.7792 24.2306 60.1689 22.7358 59.3381C21.2384 58.5047 19.9654 57.6122 18.9169 56.6604L8.15768 61.2375L0.636719 48.1313L9.93609 41.1185C9.81511 40.3926 9.71698 39.6425 9.64171 38.8682C9.56105 38.094 9.52073 37.3425 9.52073 36.614C9.52073 35.9365 9.56105 35.224 9.64171 34.4766C9.71698 33.7292 9.81511 32.8878 9.93609 31.9522L0.636719 24.9474L8.15768 11.9944L18.8362 16.4949C20.0407 15.4921 21.3446 14.5874 22.7479 13.7809C24.1459 12.9744 25.5076 12.3506 26.833 11.9097L28.3655 0.243164H43.4154L44.8713 11.9863C46.4171 12.5294 47.7829 13.1518 48.9685 13.8535C50.1541 14.5552 51.376 15.4343 52.6342 16.4909L63.6232 11.9944L71.1442 24.9434L61.9577 31.8836C62.0088 31.9858 62.0344 32.0893 62.0344 32.1941C62.0344 32.299 62.0599 32.4025 62.111 32.5047H57.3564C57.2892 32.1686 57.2355 31.854 57.1951 31.561C57.1521 31.2706 57.0634 30.9574 56.929 30.6214L65.9098 23.8344L61.9013 16.9788L51.6099 21.2938C50.3893 19.9522 48.7856 18.6954 46.7989 17.5232C44.8094 16.3537 42.9275 15.5781 41.1531 15.1964L39.9231 4.27585H31.882L30.6238 15.1197C28.5913 15.5526 26.7228 16.2516 25.0183 17.2167C23.3165 18.1792 21.6228 19.5033 19.9372 21.1889L9.87964 16.9788L5.87115 23.8344L14.618 30.3673C14.282 31.2706 14.0467 32.2519 13.9123 33.3112C13.7779 34.3704 13.7107 35.4727 13.7107 36.618C13.7107 37.6396 13.7779 38.6545 13.9123 39.6627C14.0467 40.6708 14.2564 41.6521 14.5414 42.6065L5.87115 49.2403L9.87964 56.0959L19.8605 51.8615C21.4736 53.4907 23.3018 54.8377 25.345 55.9023C27.3882 56.9669 29.5591 57.7452 31.8578 58.2372V72.8315H28.3655ZM46.5932 76.2432C45.171 76.2432 43.9612 75.7458 42.9638 74.7511C41.9664 73.7563 41.469 72.5479 41.4717 71.1257V47.2401C41.4717 45.8179 41.9691 44.6081 42.9638 43.6107C43.9585 42.6132 45.1683 42.1159 46.5932 42.1186H70.4788C71.901 42.1186 73.1095 42.6159 74.1042 43.6107C75.0989 44.6054 75.5963 45.8152 75.5963 47.2401V71.1257C75.5963 72.5479 75.0989 73.7563 74.1042 74.7511C73.1095 75.7458 71.901 76.2432 70.4788 76.2432H46.5932Z" fill="black"/>
</svg>
