<svg width="81" height="81" viewBox="0 0 81 81" fill="none" xmlns="http://www.w3.org/2000/svg">
<path d="M40.4816 68.5013C40.4816 61.893 37.8401 55.5553 33.1383 50.8826C28.4365 46.2098 22.0595 43.5846 15.4102 43.5846V22.5013L30.8387 7.16797H65.553C66.576 7.16797 67.5571 7.57184 68.2804 8.29073C69.0038 9.00962 69.4102 9.98464 69.4102 11.0013V72.3346C69.4102 73.3513 69.0038 74.3263 68.2804 75.0452C67.5571 75.7641 66.576 76.168 65.553 76.168H39.2473C40.0721 73.6953 40.4889 71.1063 40.4816 68.5013Z" fill="white"/>
<path d="M13.7422 63.5013H27.0755M20.4089 70.168V56.8346M47.0755 43.5013H53.7422M53.7422 30.168H33.7422" stroke="#317EE0" stroke-width="5" stroke-linecap="round" stroke-linejoin="round"/>
<path d="M18.4102 44.8346V22.8346L32.9816 8.16797H65.7673C66.7334 8.16797 67.66 8.55428 68.3432 9.24191C69.0264 9.92954 69.4102 10.8622 69.4102 11.8346V70.5013C69.4102 71.4738 69.0264 72.4064 68.3432 73.094C67.66 73.7817 66.7334 74.168 65.7673 74.168H40.2673" stroke="#317EE0" stroke-width="5" stroke-linecap="round" stroke-linejoin="round"/>
</svg>
