<svg width="67" height="67" viewBox="0 0 67 67" fill="none" xmlns="http://www.w3.org/2000/svg">
<path fill-rule="evenodd" clip-rule="evenodd" d="M22.0458 4.02888C22.0458 3.29006 21.7523 2.5815 21.2298 2.05908C20.7074 1.53666 19.9989 1.24316 19.26 1.24316C18.5212 1.24316 17.8127 1.53666 17.2902 2.05908C16.7678 2.5815 16.4743 3.29006 16.4743 4.02888V8.67174H15.5458C13.8219 8.67174 12.1686 9.35655 10.9496 10.5755C9.73058 11.7945 9.04576 13.4478 9.04576 15.1717V16.1003H4.4029C3.66408 16.1003 2.95553 16.3938 2.4331 16.9162C1.91068 17.4386 1.61719 18.1472 1.61719 18.886C1.61719 19.6248 1.91068 20.3334 2.4331 20.8558C2.95553 21.3782 3.66408 21.6717 4.4029 21.6717H9.04576V30.9574H4.4029C3.66408 30.9574 2.95553 31.2509 2.4331 31.7734C1.91068 32.2958 1.61719 33.0043 1.61719 33.7432C1.61719 34.482 1.91068 35.1905 2.4331 35.713C2.95553 36.2354 3.66408 36.5289 4.4029 36.5289H9.04576V45.8146H4.4029C3.66408 45.8146 2.95553 46.1081 2.4331 46.6305C1.91068 47.1529 1.61719 47.8615 1.61719 48.6003C1.61719 49.3391 1.91068 50.0477 2.4331 50.5701C2.95553 51.0925 3.66408 51.386 4.4029 51.386H9.04576V52.3146C9.04576 55.9026 11.9578 58.8146 15.5458 58.8146H16.4743V63.4574C16.4743 64.1963 16.7678 64.9048 17.2902 65.4272C17.8127 65.9497 18.5212 66.2432 19.26 66.2432C19.9989 66.2432 20.7074 65.9497 21.2298 65.4272C21.7523 64.9048 22.0458 64.1963 22.0458 63.4574V58.8146H31.3315V63.4574C31.3315 64.1963 31.625 64.9048 32.1474 65.4272C32.6698 65.9497 33.3784 66.2432 34.1172 66.2432C34.856 66.2432 35.5646 65.9497 36.087 65.4272C36.6094 64.9048 36.9029 64.1963 36.9029 63.4574V58.8146H46.1886V63.4574C46.1886 64.1963 46.4821 64.9048 47.0045 65.4272C47.527 65.9497 48.2355 66.2432 48.9743 66.2432C49.7131 66.2432 50.4217 65.9497 50.9441 65.4272C51.4666 64.9048 51.76 64.1963 51.76 63.4574V58.8146H52.6886C54.4125 58.8146 56.0658 58.1298 57.2848 56.9108C58.5038 55.6918 59.1886 54.0385 59.1886 52.3146V51.386H63.8315C64.5703 51.386 65.2788 51.0925 65.8013 50.5701C66.3237 50.0477 66.6172 49.3391 66.6172 48.6003C66.6172 47.8615 66.3237 47.1529 65.8013 46.6305C65.2788 46.1081 64.5703 45.8146 63.8315 45.8146H59.1886V36.5289H63.8315C64.5703 36.5289 65.2788 36.2354 65.8013 35.713C66.3237 35.1905 66.6172 34.482 66.6172 33.7432C66.6172 33.0043 66.3237 32.2958 65.8013 31.7734C65.2788 31.2509 64.5703 30.9574 63.8315 30.9574H59.1886V21.6717H63.8315C64.5703 21.6717 65.2788 21.3782 65.8013 20.8558C66.3237 20.3334 66.6172 19.6248 66.6172 18.886C66.6172 18.1472 66.3237 17.4386 65.8013 16.9162C65.2788 16.3938 64.5703 16.1003 63.8315 16.1003H59.1886V15.1717C59.1886 13.4478 58.5038 11.7945 57.2848 10.5755C56.0658 9.35655 54.4125 8.67174 52.6886 8.67174H51.76V4.02888C51.76 3.29006 51.4666 2.5815 50.9441 2.05908C50.4217 1.53666 49.7131 1.24316 48.9743 1.24316C48.2355 1.24316 47.527 1.53666 47.0045 2.05908C46.4821 2.5815 46.1886 3.29006 46.1886 4.02888V8.67174H36.9029V4.02888C36.9029 3.29006 36.6094 2.5815 36.087 2.05908C35.5646 1.53666 34.856 1.24316 34.1172 1.24316C33.3784 1.24316 32.6698 1.53666 32.1474 2.05908C31.625 2.5815 31.3315 3.29006 31.3315 4.02888V8.67174H22.0458V4.02888ZM14.6172 15.1717C14.6172 14.9255 14.715 14.6893 14.8892 14.5151C15.0633 14.341 15.2995 14.2432 15.5458 14.2432H52.6886C52.9349 14.2432 53.1711 14.341 53.3452 14.5151C53.5194 14.6893 53.6172 14.9255 53.6172 15.1717V52.3146C53.6172 52.5609 53.5194 52.7971 53.3452 52.9712C53.1711 53.1453 52.9349 53.2432 52.6886 53.2432H15.5458C15.2995 53.2432 15.0633 53.1453 14.8892 52.9712C14.715 52.7971 14.6172 52.5609 14.6172 52.3146V15.1717ZM33.3706 43.9686L32.3492 41.1012H24.8203L23.7989 43.9686C23.5507 44.6646 23.0361 45.2334 22.3685 45.55C21.7008 45.8666 20.9347 45.905 20.2388 45.6567C19.5428 45.4085 18.9739 44.8939 18.6574 44.2263C18.3408 43.5586 18.3024 42.7926 18.5506 42.0966L24.8649 24.3794L24.876 24.346L24.8909 24.3089C25.4555 22.8529 26.8075 21.668 28.5829 21.668C30.362 21.668 31.7103 22.8529 32.2786 24.3126L32.2898 24.346L32.3046 24.3832L38.6189 42.1003C38.855 42.7934 38.8087 43.5516 38.49 44.2108C38.1714 44.8701 37.606 45.3773 36.9162 45.6229C36.2264 45.8685 35.4676 45.8326 34.8041 45.523C34.1406 45.2134 33.6256 44.655 33.3706 43.9686ZM28.5829 30.5414L30.362 35.5297H26.8038L28.5829 30.5414ZM42.4743 24.45C42.4743 23.7112 42.7678 23.0026 43.2902 22.4802C43.8127 21.9578 44.5212 21.6643 45.26 21.6643C45.9989 21.6643 46.7074 21.9578 47.2298 22.4802C47.7523 23.0026 48.0458 23.7112 48.0458 24.45V43.0326C48.0458 43.7714 47.7523 44.48 47.2298 45.0024C46.7074 45.5248 45.9989 45.8183 45.26 45.8183C44.5212 45.8183 43.8127 45.5248 43.2902 45.0024C42.7678 44.48 42.4743 43.7714 42.4743 43.0326V24.45Z" fill="black"/>
</svg>
