<svg width="57" height="57" viewBox="0 0 57 57" fill="none" xmlns="http://www.w3.org/2000/svg">
<circle cx="28.4844" cy="28.0293" r="28" fill="#D9D9D9"/>
<path fill-rule="evenodd" clip-rule="evenodd" d="M22.5415 13.4007C22.5415 13.037 22.397 12.6882 22.1398 12.431C21.8826 12.1738 21.5338 12.0293 21.1701 12.0293C20.8064 12.0293 20.4575 12.1738 20.2003 12.431C19.9432 12.6882 19.7987 13.037 19.7987 13.4007V15.6864H19.3415C18.4928 15.6864 17.6789 16.0236 17.0788 16.6237C16.4787 17.2238 16.1415 18.0377 16.1415 18.8864V19.3436H13.8558C13.4921 19.3436 13.1432 19.4881 12.8861 19.7453C12.6289 20.0025 12.4844 20.3513 12.4844 20.715C12.4844 21.0787 12.6289 21.4276 12.8861 21.6848C13.1432 21.9419 13.4921 22.0864 13.8558 22.0864H16.1415V26.6579H13.8558C13.4921 26.6579 13.1432 26.8024 12.8861 27.0596C12.6289 27.3167 12.4844 27.6656 12.4844 28.0293C12.4844 28.393 12.6289 28.7418 12.8861 28.999C13.1432 29.2562 13.4921 29.4007 13.8558 29.4007H16.1415V33.9722H13.8558C13.4921 33.9722 13.1432 34.1166 12.8861 34.3738C12.6289 34.631 12.4844 34.9799 12.4844 35.3436C12.4844 35.7073 12.6289 36.0561 12.8861 36.3133C13.1432 36.5705 13.4921 36.715 13.8558 36.715H16.1415V37.1722C16.1415 38.9386 17.5751 40.3722 19.3415 40.3722H19.7987V42.6579C19.7987 43.0216 19.9432 43.3704 20.2003 43.6276C20.4575 43.8848 20.8064 44.0293 21.1701 44.0293C21.5338 44.0293 21.8826 43.8848 22.1398 43.6276C22.397 43.3704 22.5415 43.0216 22.5415 42.6579V40.3722H27.1129V42.6579C27.1129 43.0216 27.2574 43.3704 27.5146 43.6276C27.7718 43.8848 28.1206 44.0293 28.4844 44.0293C28.8481 44.0293 29.1969 43.8848 29.4541 43.6276C29.7113 43.3704 29.8558 43.0216 29.8558 42.6579V40.3722H34.4272V42.6579C34.4272 43.0216 34.5717 43.3704 34.8289 43.6276C35.0861 43.8848 35.4349 44.0293 35.7987 44.0293C36.1624 44.0293 36.5112 43.8848 36.7684 43.6276C37.0256 43.3704 37.1701 43.0216 37.1701 42.6579V40.3722H37.6272C38.4759 40.3722 39.2899 40.035 39.89 39.4349C40.4901 38.8348 40.8272 38.0208 40.8272 37.1722V36.715H43.1129C43.4767 36.715 43.8255 36.5705 44.0827 36.3133C44.3399 36.0561 44.4844 35.7073 44.4844 35.3436C44.4844 34.9799 44.3399 34.631 44.0827 34.3738C43.8255 34.1166 43.4767 33.9722 43.1129 33.9722H40.8272V29.4007H43.1129C43.4767 29.4007 43.8255 29.2562 44.0827 28.999C44.3399 28.7418 44.4844 28.393 44.4844 28.0293C44.4844 27.6656 44.3399 27.3167 44.0827 27.0596C43.8255 26.8024 43.4767 26.6579 43.1129 26.6579H40.8272V22.0864H43.1129C43.4767 22.0864 43.8255 21.9419 44.0827 21.6848C44.3399 21.4276 44.4844 21.0787 44.4844 20.715C44.4844 20.3513 44.3399 20.0025 44.0827 19.7453C43.8255 19.4881 43.4767 19.3436 43.1129 19.3436H40.8272V18.8864C40.8272 18.0377 40.4901 17.2238 39.89 16.6237C39.2899 16.0236 38.4759 15.6864 37.6272 15.6864H37.1701V13.4007C37.1701 13.037 37.0256 12.6882 36.7684 12.431C36.5112 12.1738 36.1624 12.0293 35.7987 12.0293C35.4349 12.0293 35.0861 12.1738 34.8289 12.431C34.5717 12.6882 34.4272 13.037 34.4272 13.4007V15.6864H29.8558V13.4007C29.8558 13.037 29.7113 12.6882 29.4541 12.431C29.1969 12.1738 28.8481 12.0293 28.4844 12.0293C28.1206 12.0293 27.7718 12.1738 27.5146 12.431C27.2574 12.6882 27.1129 13.037 27.1129 13.4007V15.6864H22.5415V13.4007ZM18.8844 18.8864C18.8844 18.7652 18.9325 18.6489 19.0183 18.5632C19.104 18.4775 19.2203 18.4293 19.3415 18.4293H37.6272C37.7485 18.4293 37.8647 18.4775 37.9505 18.5632C38.0362 18.6489 38.0844 18.7652 38.0844 18.8864V37.1722C38.0844 37.2934 38.0362 37.4097 37.9505 37.4954C37.8647 37.5811 37.7485 37.6293 37.6272 37.6293H19.3415C19.2203 37.6293 19.104 37.5811 19.0183 37.4954C18.9325 37.4097 18.8844 37.2934 18.8844 37.1722V18.8864ZM28.1168 33.0634L27.614 31.6517H23.9075L23.4046 33.0634C23.2824 33.406 23.0291 33.686 22.7004 33.8419C22.3717 33.9977 21.9945 34.0167 21.6519 33.8944C21.3093 33.7722 21.0292 33.5189 20.8734 33.1902C20.7175 32.8615 20.6986 32.4844 20.8208 32.1418L23.9294 23.4195L23.9349 23.403L23.9422 23.3847C24.2201 22.6679 24.8857 22.0846 25.7598 22.0846C26.6357 22.0846 27.2995 22.6679 27.5792 23.3866L27.5847 23.403L27.592 23.4213L30.7006 32.1436C30.8168 32.4848 30.794 32.8581 30.6372 33.1826C30.4803 33.5072 30.2019 33.7569 29.8623 33.8778C29.5228 33.9987 29.1492 33.981 28.8225 33.8286C28.4959 33.6762 28.2424 33.4013 28.1168 33.0634ZM25.7598 26.4531L26.6357 28.9088H24.8839L25.7598 26.4531ZM32.5987 23.4542C32.5987 23.0905 32.7432 22.7417 33.0003 22.4845C33.2575 22.2273 33.6064 22.0828 33.9701 22.0828C34.3338 22.0828 34.6826 22.2273 34.9398 22.4845C35.197 22.7417 35.3415 23.0905 35.3415 23.4542V32.6026C35.3415 32.9663 35.197 33.3151 34.9398 33.5723C34.6826 33.8295 34.3338 33.974 33.9701 33.974C33.6064 33.974 33.2575 33.8295 33.0003 33.5723C32.7432 33.3151 32.5987 32.9663 32.5987 32.6026V23.4542Z" fill="black"/>
</svg>
