<svg width="67" height="67" viewBox="0 0 67 67" fill="none" xmlns="http://www.w3.org/2000/svg">
<path d="M24.4648 47.3262C25.8613 48.0352 27.1182 48.9053 28.2354 49.9366C29.3525 50.9678 30.3193 52.128 31.1357 53.417C31.9521 54.7061 32.5645 56.0811 32.9727 57.542C33.3809 59.003 33.5957 60.5284 33.6172 62.1182H29.4922C29.4922 60.4209 29.1699 58.8203 28.5254 57.3164C27.8809 55.8125 27 54.502 25.8828 53.3848C24.7656 52.2676 23.4443 51.376 21.9189 50.71C20.3936 50.044 18.793 49.7217 17.1172 49.7432C15.3984 49.7432 13.7979 50.0655 12.3154 50.71C10.833 51.3545 9.52246 52.2354 8.38379 53.3526C7.24512 54.4698 6.35352 55.791 5.70898 57.3164C5.06445 58.8418 4.74219 60.4424 4.74219 62.1182H0.617188C0.617188 60.5498 0.832031 59.0352 1.26172 57.5742C1.69141 56.1133 2.30371 54.7383 3.09863 53.4492C3.89355 52.1602 4.84961 51 5.9668 49.9688C7.08398 48.9375 8.35156 48.0567 9.76953 47.3262C8.17969 46.1446 6.94434 44.6836 6.06348 42.9434C5.18262 41.2032 4.74219 39.3448 4.74219 37.3682C4.74219 35.6709 5.06445 34.0703 5.70898 32.5664C6.35352 31.0625 7.23438 29.752 8.35156 28.6348C9.46875 27.5176 10.7793 26.626 12.2832 25.96C13.7871 25.294 15.3984 24.9717 17.1172 24.9932C19.0938 24.9932 20.9521 25.4336 22.6924 26.3145C24.4326 27.1953 25.8936 28.4307 27.0752 30.0205C27.8916 28.4092 28.9336 26.9698 30.2012 25.7022C31.4688 24.4346 32.9082 23.3926 34.5195 22.5762C32.9297 21.3946 31.6943 19.9336 30.8135 18.1934C29.9326 16.4532 29.4922 14.5948 29.4922 12.6182C29.4922 10.9209 29.8145 9.32034 30.459 7.81644C31.1035 6.31253 31.9844 5.00198 33.1016 3.8848C34.2188 2.76761 35.5293 1.87601 37.0332 1.20999C38.5371 0.543976 40.1484 0.22171 41.8672 0.243195C43.5645 0.243195 45.165 0.56546 46.6689 1.20999C48.1729 1.85452 49.4834 2.73538 50.6006 3.85257C51.7178 4.96976 52.6094 6.29105 53.2754 7.81644C53.9414 9.34183 54.2637 10.9424 54.2422 12.6182C54.2422 14.5948 53.8018 16.4532 52.9209 18.1934C52.04 19.9336 50.8047 21.3946 49.2148 22.5762C50.6113 23.2852 51.8682 24.1553 52.9854 25.1866C54.1025 26.2178 55.0693 27.378 55.8857 28.667C56.7021 29.9561 57.3145 31.3311 57.7227 32.792C58.1309 34.253 58.3457 35.7784 58.3672 37.3682H54.2422C54.2422 35.6709 53.9199 34.0703 53.2754 32.5664C52.6309 31.0625 51.75 29.752 50.6328 28.6348C49.5156 27.5176 48.1943 26.626 46.6689 25.96C45.1436 25.294 43.543 24.9717 41.8672 24.9932C40.1484 24.9932 38.5479 25.3155 37.0654 25.96C35.583 26.6045 34.2725 27.4854 33.1338 28.6026C31.9951 29.7198 31.1035 31.041 30.459 32.5664C29.8145 34.0918 29.4922 35.6924 29.4922 37.3682C29.4922 39.3448 29.0518 41.2032 28.1709 42.9434C27.29 44.6836 26.0547 46.1446 24.4648 47.3262ZM33.6172 12.6182C33.6172 13.7569 33.832 14.8203 34.2617 15.8086C34.6914 16.7969 35.2822 17.6778 36.0342 18.4512C36.7861 19.2246 37.6562 19.8155 38.6445 20.2237C39.6328 20.6319 40.707 20.8467 41.8672 20.8682C43.0059 20.8682 44.0693 20.6534 45.0576 20.2237C46.0459 19.794 46.9268 19.2032 47.7002 18.4512C48.4736 17.6992 49.0645 16.8291 49.4727 15.8409C49.8809 14.8526 50.0957 13.7784 50.1172 12.6182C50.1172 11.4795 49.9023 10.416 49.4727 9.42776C49.043 8.43948 48.4521 7.55862 47.7002 6.78519C46.9482 6.01175 46.0781 5.42093 45.0898 5.01273C44.1016 4.60452 43.0273 4.38968 41.8672 4.36819C40.7285 4.36819 39.665 4.58304 38.6768 5.01273C37.6885 5.44241 36.8076 6.03323 36.0342 6.78519C35.2607 7.53714 34.6699 8.40726 34.2617 9.39554C33.8535 10.3838 33.6387 11.458 33.6172 12.6182ZM8.86719 37.3682C8.86719 38.5069 9.08203 39.5703 9.51172 40.5586C9.94141 41.5469 10.5322 42.4278 11.2842 43.2012C12.0361 43.9746 12.9062 44.5655 13.8945 44.9737C14.8828 45.3819 15.957 45.5967 17.1172 45.6182C18.2559 45.6182 19.3193 45.4034 20.3076 44.9737C21.2959 44.544 22.1768 43.9532 22.9502 43.2012C23.7236 42.4492 24.3145 41.5791 24.7227 40.5909C25.1309 39.6026 25.3457 38.5284 25.3672 37.3682C25.3672 36.2295 25.1523 35.166 24.7227 34.1778C24.293 33.1895 23.7021 32.3086 22.9502 31.5352C22.1982 30.7617 21.3281 30.1709 20.3398 29.7627C19.3516 29.3545 18.2773 29.1397 17.1172 29.1182C15.9785 29.1182 14.915 29.333 13.9268 29.7627C12.9385 30.1924 12.0576 30.7832 11.2842 31.5352C10.5107 32.2871 9.91992 33.1573 9.51172 34.1455C9.10352 35.1338 8.88867 36.208 8.86719 37.3682ZM41.8672 45.6182H66.6172V49.7432H41.8672V45.6182ZM41.8672 57.9932V53.8682H66.6172V57.9932H41.8672ZM41.8672 66.2432V62.1182H66.6172V66.2432H41.8672Z" fill="black"/>
</svg>
