<svg width="67" height="67" viewBox="0 0 67 67" fill="none" xmlns="http://www.w3.org/2000/svg">
<path d="M12.6967 1.24316C9.75826 1.24316 6.94013 2.41047 4.86231 4.48829C2.78449 6.56611 1.61719 9.38423 1.61719 12.3227V55.1636C1.61719 58.1021 2.78449 60.9202 4.86231 62.998C6.94013 65.0759 9.75826 66.2432 12.6967 66.2432H55.5376C58.4761 66.2432 61.2943 65.0759 63.3721 62.998C65.4499 60.9202 66.6172 58.1021 66.6172 55.1636V12.3227C66.6172 9.38423 65.4499 6.56611 63.3721 4.48829C61.2943 2.41047 58.4761 1.24316 55.5376 1.24316H12.6967ZM6.04901 12.3227C6.04901 10.5596 6.74939 8.86875 7.99608 7.62206C9.24277 6.37537 10.9336 5.67498 12.6967 5.67498H55.5376C57.3007 5.67498 58.9916 6.37537 60.2383 7.62206C61.485 8.86875 62.1854 10.5596 62.1854 12.3227V55.1636C62.1854 56.9267 61.485 58.6176 60.2383 59.8643C58.9916 61.111 57.3007 61.8113 55.5376 61.8113H12.6967C10.9336 61.8113 9.24277 61.111 7.99608 59.8643C6.74939 58.6176 6.04901 56.9267 6.04901 55.1636V12.3227ZM10.4808 18.9704C10.4808 17.4032 11.1034 15.9002 12.2116 14.7921C13.3197 13.6839 14.8227 13.0613 16.3899 13.0613H51.8445C53.4116 13.0613 54.9146 13.6839 56.0228 14.7921C57.131 15.9002 57.7536 17.4032 57.7536 18.9704V24.8795C57.7536 26.4467 57.131 27.9497 56.0228 29.0579C54.9146 30.1661 53.4116 30.7886 51.8445 30.7886H16.3899C14.8227 30.7886 13.3197 30.1661 12.2116 29.0579C11.1034 27.9497 10.4808 26.4467 10.4808 24.8795V18.9704ZM16.3899 17.4932C15.9981 17.4932 15.6224 17.6488 15.3453 17.9258C15.0683 18.2029 14.9126 18.5786 14.9126 18.9704V24.8795C14.9126 25.2713 15.0683 25.6471 15.3453 25.9241C15.6224 26.2012 15.9981 26.3568 16.3899 26.3568H51.8445C52.2363 26.3568 52.612 26.2012 52.8891 25.9241C53.1661 25.6471 53.3217 25.2713 53.3217 24.8795V18.9704C53.3217 18.5786 53.1661 18.2029 52.8891 17.9258C52.612 17.6488 52.2363 17.4932 51.8445 17.4932H16.3899ZM10.4808 38.9136C10.4808 38.3259 10.7143 37.7623 11.1298 37.3467C11.5454 36.9312 12.109 36.6977 12.6967 36.6977H28.9467C29.5344 36.6977 30.0981 36.9312 30.5136 37.3467C30.9292 37.7623 31.1626 38.3259 31.1626 38.9136C31.1626 39.5013 30.9292 40.0649 30.5136 40.4805C30.0981 40.8961 29.5344 41.1295 28.9467 41.1295H12.6967C12.109 41.1295 11.5454 40.8961 11.1298 40.4805C10.7143 40.0649 10.4808 39.5013 10.4808 38.9136ZM12.6967 47.7773C12.109 47.7773 11.5454 48.0107 11.1298 48.4263C10.7143 48.8418 10.4808 49.4055 10.4808 49.9932C10.4808 50.5809 10.7143 51.1445 11.1298 51.5601C11.5454 51.9756 12.109 52.2091 12.6967 52.2091H28.9467C29.5344 52.2091 30.0981 51.9756 30.5136 51.5601C30.9292 51.1445 31.1626 50.5809 31.1626 49.9932C31.1626 49.4055 30.9292 48.8418 30.5136 48.4263C30.0981 48.0107 29.5344 47.7773 28.9467 47.7773H12.6967ZM38.549 40.3909C38.549 37.5368 40.8654 35.2204 43.7195 35.2204H52.5831C55.4372 35.2204 57.7536 37.5368 57.7536 40.3909V49.2545C57.7536 50.6258 57.2088 51.9409 56.2392 52.9106C55.2695 53.8802 53.9544 54.425 52.5831 54.425H43.7195C42.3482 54.425 41.033 53.8802 40.0634 52.9106C39.0938 51.9409 38.549 50.6258 38.549 49.2545V40.3909ZM43.7195 39.6523C43.5236 39.6523 43.3357 39.7301 43.1972 39.8686C43.0586 40.0071 42.9808 40.195 42.9808 40.3909V49.2545C42.9808 49.6623 43.3117 49.9932 43.7195 49.9932H52.5831C52.779 49.9932 52.9669 49.9153 53.1054 49.7768C53.2439 49.6383 53.3217 49.4504 53.3217 49.2545V40.3909C53.3217 40.195 53.2439 40.0071 53.1054 39.8686C52.9669 39.7301 52.779 39.6523 52.5831 39.6523H43.7195Z" fill="black"/>
</svg>
