<svg width="50" height="51" viewBox="0 0 50 51" fill="none" xmlns="http://www.w3.org/2000/svg">
<path d="M12.5 46.4284H37.5C39.1576 46.4284 40.7473 45.7699 41.9194 44.5978C43.0915 43.4257 43.75 41.836 43.75 40.1784V15.1784C43.75 14.0733 43.311 13.0135 42.5296 12.2321C41.7482 11.4507 40.6884 11.0117 39.5833 11.0117H35.4167V6.84505C35.4167 6.29252 35.1972 5.76261 34.8065 5.37191C34.4158 4.98121 33.8859 4.76172 33.3333 4.76172C32.7808 4.76172 32.2509 4.98121 31.8602 5.37191C31.4695 5.76261 31.25 6.29252 31.25 6.84505V11.0117H18.75V6.84505C18.75 6.29252 18.5305 5.76261 18.1398 5.37191C17.7491 4.98121 17.2192 4.76172 16.6667 4.76172C16.1141 4.76172 15.5842 4.98121 15.1935 5.37191C14.8028 5.76261 14.5833 6.29252 14.5833 6.84505V11.0117H10.4167C9.3116 11.0117 8.25179 11.4507 7.47039 12.2321C6.68899 13.0135 6.25 14.0733 6.25 15.1784V40.1784C6.25 41.836 6.90848 43.4257 8.08058 44.5978C9.25269 45.7699 10.8424 46.4284 12.5 46.4284ZM10.4167 26.6367C10.4167 26.3605 10.5264 26.0955 10.7218 25.9001C10.9171 25.7048 11.1821 25.5951 11.4583 25.5951H38.5417C38.8179 25.5951 39.0829 25.7048 39.2782 25.9001C39.4736 26.0955 39.5833 26.3605 39.5833 26.6367V40.1784C39.5833 40.7309 39.3638 41.2608 38.9731 41.6515C38.5824 42.0422 38.0525 42.2617 37.5 42.2617H12.5C11.9475 42.2617 11.4176 42.0422 11.0269 41.6515C10.6362 41.2608 10.4167 40.7309 10.4167 40.1784V26.6367Z" fill="black"/>
</svg>
