<svg width="66" height="81" viewBox="0 0 66 81" fill="none" xmlns="http://www.w3.org/2000/svg">
<path d="M55.4994 75.8103C56.5243 75.8103 57.5074 75.4032 58.2321 74.6784C58.9569 73.9536 59.3641 72.9706 59.3641 71.9456V10.1099C59.3641 9.08486 58.9569 8.10185 58.2321 7.37707C57.5074 6.65229 56.5243 6.24512 55.4994 6.24512H20.7167L5.25781 21.7041V71.9456C5.25781 72.9706 5.66499 73.9536 6.38977 74.6784C7.11455 75.4032 8.09756 75.8103 9.12255 75.8103H55.4994Z" fill="white"/>
<path d="M26.5156 35.2305L38.1098 46.8247" stroke="#317EE0" stroke-width="5" stroke-linecap="round" stroke-linejoin="round"/>
<path d="M38.1098 35.2305L26.5156 46.8247" stroke="#317EE0" stroke-width="5" stroke-linecap="round" stroke-linejoin="round"/>
<path d="M9.12255 75.8103C8.09756 75.8103 7.11455 75.4032 6.38977 74.6784C5.66499 73.9536 5.25781 72.9706 5.25781 71.9456V21.7041L20.7167 6.24512H55.4994C56.5243 6.24512 57.5074 6.65229 58.2321 7.37707C58.9569 8.10185 59.3641 9.08486 59.3641 10.1099V71.9456C59.3641 72.9706 58.9569 73.9536 58.2321 74.6784C57.5074 75.4032 56.5243 75.8103 55.4994 75.8103H9.12255Z" stroke="#317EE0" stroke-width="5" stroke-linecap="round" stroke-linejoin="round"/>
</svg>
