<svg width="21" height="21" viewBox="0 0 21 21" fill="none" xmlns="http://www.w3.org/2000/svg">
<path d="M4.02734 5.16699H2.86068C2.24184 5.16699 1.64835 5.41282 1.21076 5.85041C0.773176 6.28799 0.527344 6.88149 0.527344 7.50033V18.0003C0.527344 18.6192 0.773176 19.2127 1.21076 19.6502C1.64835 20.0878 2.24184 20.3337 2.86068 20.3337H13.3607C13.9795 20.3337 14.573 20.0878 15.0106 19.6502C15.4482 19.2127 15.694 18.6192 15.694 18.0003V16.8337" stroke="#828282" stroke-linecap="round" stroke-linejoin="round"/>
<path d="M14.526 2.83346L18.026 6.33346M19.6419 4.68263C20.1014 4.22314 20.3595 3.59994 20.3595 2.95012C20.3595 2.30031 20.1014 1.67711 19.6419 1.21762C19.1824 0.758137 18.5592 0.5 17.9094 0.5C17.2596 0.5 16.6364 0.758137 16.1769 1.21762L6.35938 11.0001V14.5001H9.85938L19.6419 4.68263Z" stroke="#828282" stroke-linecap="round" stroke-linejoin="round"/>
</svg>
