<svg id="圖層_2" data-name="圖層 2" xmlns="http://www.w3.org/2000/svg" viewBox="0 0 694.41 187.54"><defs><style>.cls-1{fill:#231815;}</style></defs><path class="cls-1" d="M142.75,119.76c-5.82,0-11.73-2.79-16.08-7.13l-5.57,6.56a30.09,30.09,0,0,0,21.49,8.86c13.2,0,21.24-7.88,21.24-17.56,0-8.85-5.17-13.28-12.3-16.32l-8.29-3.53c-4.92-2-9.76-3.93-9.76-9.1,0-4.84,4-7.79,10.17-7.79,5.34,0,9.52,2,13.29,5.41l5-6.07a25.86,25.86,0,0,0-18.29-7.63c-11.48,0-19.85,7.14-19.85,16.65,0,8.78,6.48,13.37,12.31,15.84l8.36,3.6c5.58,2.46,9.68,4.19,9.68,9.68C154.15,116.32,150.05,119.76,142.75,119.76Z"/><path class="cls-1" d="M191.8,80.72c-10.58,0-20.59,9.11-20.59,23.79,0,14.84,9.77,23.54,22,23.54a27.41,27.41,0,0,0,15.26-4.76l-3.29-6a19.08,19.08,0,0,1-10.74,3.37c-7.79,0-13.21-5.17-14-13.78h29.29a25,25,0,0,0,.41-4.76C210.18,89.33,203.78,80.72,191.8,80.72Zm-11.4,19.69c.9-8,5.91-12.31,11.57-12.31,6.56,0,10.09,4.51,10.09,12.31Z"/><path class="cls-1" d="M249.88,116.24a15.5,15.5,0,0,1-9.85,4.1c-7.54,0-12.71-6.32-12.71-15.83s5.41-16,13-16c3.12,0,5.66,1.32,8.12,3.53l4.68-6.15a19.39,19.39,0,0,0-13.21-5.17c-11.89,0-22.31,8.69-22.31,23.79,0,14.93,9.35,23.54,21.57,23.54a22,22,0,0,0,14.6-5.58Z"/><path class="cls-1" d="M279.08,80.72c-11.15,0-21.24,8.69-21.24,23.79,0,14.93,10.09,23.54,21.24,23.54s21.25-8.61,21.25-23.54C300.33,89.41,290.24,80.72,279.08,80.72Zm0,39.62c-7.05,0-11.48-6.32-11.48-15.83s4.43-16,11.48-16,11.57,6.4,11.57,16S286.22,120.34,279.08,120.34Z"/><path class="cls-1" d="M335,80.72c-6.16,0-10.75,3.36-14.93,7.38h-.25l-.74-6.23H311.4V127h9.35V95c4-4,6.89-6.15,11.08-6.15,5.33,0,7.63,3.12,7.63,10.91V127h9.43V98.6C348.89,87.12,344.62,80.72,335,80.72Z"/><path class="cls-1" d="M390.64,78.34l.41,7.47c-3.69-3.12-7-5.09-12.14-5.09-10.09,0-19.36,9.11-19.36,23.79,0,14.93,7.3,23.54,18.62,23.54,5.09,0,9.77-2.71,13.13-6.15h.25l.81,5.08h7.71V61.61h-9.43Zm0,36.42c-3.28,3.77-6.48,5.5-10.25,5.5-7.06,0-11.08-5.67-11.08-15.92,0-9.76,5.09-15.75,11.41-15.75a14.13,14.13,0,0,1,9.92,4.11Z"/><polygon class="cls-1" points="468.9 91.22 443.06 91.22 443.06 66.61 433.54 66.61 433.54 126.98 443.06 126.98 443.06 99.5 468.9 99.5 468.9 126.98 478.41 126.98 478.41 66.61 468.9 66.61 468.9 91.22"/><path class="cls-1" d="M511.47,80.72c-11.15,0-21.24,8.69-21.24,23.79,0,14.93,10.09,23.54,21.24,23.54s21.25-8.61,21.25-23.54C532.72,89.41,522.63,80.72,511.47,80.72Zm0,39.62c-7.05,0-11.48-6.32-11.48-15.83s4.43-16,11.48-16,11.57,6.4,11.57,16S518.61,120.34,511.47,120.34Z"/><path class="cls-1" d="M593.58,80.72c-5.66,0-10.25,3.53-14.68,8.28-2-5.16-5.74-8.28-12.47-8.28-5.58,0-10.09,3.36-13.94,7.46h-.25l-.74-6.31h-7.71V127h9.35V95c3.78-4.1,7.14-6.15,10.17-6.15,5.17,0,7.55,3.12,7.55,10.91V127h9.43V95c3.78-4.1,7.06-6.15,10.17-6.15,5.09,0,7.55,3.12,7.55,10.91V127h9.43V98.6C607.44,87.12,603,80.72,593.58,80.72Z"/><path class="cls-1" d="M656.83,102.13c0-12.8-6.4-21.41-18.38-21.41-10.58,0-20.59,9.11-20.59,23.79,0,14.84,9.76,23.54,22,23.54a27.35,27.35,0,0,0,15.25-4.76l-3.28-6a19.08,19.08,0,0,1-10.74,3.37c-7.8,0-13.21-5.17-14-13.78h29.28A24.06,24.06,0,0,0,656.83,102.13Zm-29.78-1.72c.9-8,5.91-12.31,11.57-12.31,6.56,0,10.08,4.51,10.08,12.31Z"/><path class="cls-1" d="M66.76,123.45a13.12,13.12,0,1,0,13.11,13.12A13.13,13.13,0,0,0,66.76,123.45Zm5.48,13.12a5.49,5.49,0,1,1-5.48-5.48A5.49,5.49,0,0,1,72.24,136.57Z"/><path class="cls-1" d="M70.06,74.19A3.82,3.82,0,0,0,63.45,78a20.23,20.23,0,0,0,12.37,9.7A17.1,17.1,0,0,0,89,86c5.73-3.41,9-9,9.57-16.74.6-7.39-2.45-14.79-8.37-20.31A33.42,33.42,0,0,0,34,73.56v.13c0,7.55,2.52,14.28,8.2,21.87l22.29,26.49a3.81,3.81,0,0,0,5.84,0L92.5,95.69a3.77,3.77,0,0,0,.88-2.79,3.81,3.81,0,0,0-4.13-3.47,3.77,3.77,0,0,0-2.59,1.34L67.39,113.66,48.22,90.9c-4.42-5.92-6.46-11-6.6-16.4,0-.11,0-.21,0-.33v-.38A25.79,25.79,0,0,1,85,54.52c4.2,3.91,6.37,9,6,14.1s-2.33,8.7-5.86,10.8a9,9,0,0,1-2.77,1.06V65.2a3.83,3.83,0,0,0-1.52-3.06L69.05,53.32a3.83,3.83,0,0,0-4.59,0L52.72,62.14a3.84,3.84,0,0,0-1.53,3.06V87.85A3.83,3.83,0,0,0,55,91.67h9.37a3.82,3.82,0,0,0,0-7.64H58.83V67.1l7.93-6,7.92,6V79A13.38,13.38,0,0,1,70.06,74.19Z"/></svg>