<svg width="93" height="93" viewBox="0 0 93 93" fill="none" xmlns="http://www.w3.org/2000/svg">
<g clip-path="url(#clip0_4387_5908)">
<path d="M82.1862 12.9355H10.6306C9.27509 12.9355 7.97506 13.474 7.01654 14.4326C6.05802 15.3911 5.51953 16.6911 5.51953 18.0467V74.2689C5.51953 75.6244 6.05802 76.9245 7.01654 77.883C7.97506 78.8415 9.27509 79.38 10.6306 79.38H82.1862C83.5417 79.38 84.8418 78.8415 85.8003 77.883C86.7588 76.9245 87.2973 75.6244 87.2973 74.2689V18.0467C87.2973 16.6911 86.7588 15.3911 85.8003 14.4326C84.8418 13.474 83.5417 12.9355 82.1862 12.9355ZM10.6306 74.2689V18.0467H82.1862V74.2689H10.6306Z" fill="#317EE0"/>
<path d="M43.8546 69.1584C38.4324 69.1584 33.2323 67.0045 29.3982 63.1704C25.5641 59.3363 23.4102 54.1362 23.4102 48.714C23.4102 43.2918 25.5641 38.0916 29.3982 34.2576C33.2323 30.4235 38.4324 28.2695 43.8546 28.2695V48.714H64.299C64.299 54.1362 62.1451 59.3363 58.311 63.1704C54.4769 67.0045 49.2768 69.1584 43.8546 69.1584ZM59.8192 52.2917H39.7657V32.8746C35.9085 33.8674 32.546 36.2336 30.3093 39.5292C28.0726 42.8249 27.1154 46.8234 27.6172 50.7747C28.119 54.7259 30.0454 58.3582 33.0349 60.9901C36.0245 63.622 39.8716 65.0725 43.8546 65.0695C47.5715 65.0707 51.178 63.8058 54.0799 61.4831C56.9818 59.1605 59.0061 55.9187 59.8192 52.2917Z" fill="#317EE0"/>
<path d="M48.9648 23.1582C54.387 23.1582 59.5872 25.3122 63.4212 29.1462C67.2553 32.9803 69.4093 38.1804 69.4093 43.6026H48.9648V23.1582ZM64.8042 39.5138C64.0719 36.6847 62.5962 34.103 60.5301 32.0365C58.464 29.9699 55.8826 28.4936 53.0537 27.7608V39.5138H64.8042Z" fill="#317EE0"/>
</g>
<defs>
<clipPath id="clip0_4387_5908">
<rect width="92" height="92" fill="white" transform="translate(0.410156 0.158203)"/>
</clipPath>
</defs>
</svg>
