<svg width="27" height="27" viewBox="0 0 27 27" fill="none" xmlns="http://www.w3.org/2000/svg">
<path d="M5.13906 12.2169V11.3502H4.2724V12.2169H5.13906ZM12.0724 12.2169V11.3502H11.2057V12.2169H12.0724ZM12.0724 19.1502H11.2057V20.0169H12.0724V19.1502ZM24.2057 7.01686H25.0724V6.65806L24.8193 6.40326L24.2057 7.01686ZM19.0057 1.81686L19.6193 1.20326L19.3645 0.950195H19.0057V1.81686ZM5.13906 13.0835H6.8724V11.3502H5.13906V13.0835ZM6.00573 20.0169V15.6835H4.2724V20.0169H6.00573ZM6.00573 15.6835V12.2169H4.2724V15.6835H6.00573ZM6.8724 14.8169H5.13906V16.5502H6.8724V14.8169ZM7.73906 13.9502C7.73906 14.18 7.64775 14.4005 7.48522 14.563C7.32269 14.7256 7.10225 14.8169 6.8724 14.8169V16.5502C7.56196 16.5502 8.22328 16.2763 8.71087 15.7887C9.19847 15.3011 9.4724 14.6398 9.4724 13.9502H7.73906ZM6.8724 13.0835C7.10225 13.0835 7.32269 13.1748 7.48522 13.3374C7.64775 13.4999 7.73906 13.7203 7.73906 13.9502H9.4724C9.4724 13.2606 9.19847 12.5993 8.71087 12.1117C8.22328 11.6241 7.56196 11.3502 6.8724 11.3502V13.0835ZM11.2057 12.2169V19.1502H12.9391V12.2169H11.2057ZM12.0724 20.0169H13.8057V18.2835H12.0724V20.0169ZM16.4057 17.4169V13.9502H14.6724V17.4169H16.4057ZM13.8057 11.3502H12.0724V13.0835H13.8057V11.3502ZM16.4057 13.9502C16.4057 13.2606 16.1318 12.5993 15.6442 12.1117C15.1566 11.6241 14.4953 11.3502 13.8057 11.3502V13.0835C14.0356 13.0835 14.256 13.1748 14.4186 13.3374C14.5811 13.4999 14.6724 13.7203 14.6724 13.9502H16.4057ZM13.8057 20.0169C14.4953 20.0169 15.1566 19.7429 15.6442 19.2553C16.1318 18.7677 16.4057 18.1064 16.4057 17.4169H14.6724C14.6724 17.6467 14.5811 17.8672 14.4186 18.0297C14.256 18.1922 14.0356 18.2835 13.8057 18.2835V20.0169ZM18.1391 11.3502V20.0169H19.8724V11.3502H18.1391ZM19.0057 13.0835H23.3391V11.3502H19.0057V13.0835ZM19.0057 16.5502H21.6057V14.8169H19.0057V16.5502ZM4.2724 9.61686V3.5502H2.53906V9.61686H4.2724ZM23.3391 7.01686V9.61686H25.0724V7.01686H23.3391ZM5.13906 2.68353H19.0057V0.950195H5.13906V2.68353ZM18.3921 2.43046L23.5921 7.63046L24.8193 6.40326L19.6193 1.20326L18.3921 2.43046ZM4.2724 3.5502C4.2724 3.32034 4.36371 3.0999 4.52624 2.93737C4.68877 2.77484 4.90921 2.68353 5.13906 2.68353V0.950195C4.4495 0.950195 3.78818 1.22412 3.30059 1.71172C2.81299 2.19931 2.53906 2.86063 2.53906 3.5502H4.2724ZM2.53906 21.7502V24.3502H4.2724V21.7502H2.53906ZM5.13906 26.9502H22.4724V25.2169H5.13906V26.9502ZM25.0724 24.3502V21.7502H23.3391V24.3502H25.0724ZM22.4724 26.9502C23.162 26.9502 23.8233 26.6763 24.3109 26.1887C24.7985 25.7011 25.0724 25.0398 25.0724 24.3502H23.3391C23.3391 24.58 23.2478 24.8005 23.0852 24.963C22.9227 25.1256 22.7023 25.2169 22.4724 25.2169V26.9502ZM2.53906 24.3502C2.53906 25.0398 2.81299 25.7011 3.30059 26.1887C3.78818 26.6763 4.4495 26.9502 5.13906 26.9502V25.2169C4.90921 25.2169 4.68877 25.1256 4.52624 24.963C4.36371 24.8005 4.2724 24.58 4.2724 24.3502H2.53906Z" fill="black"/>
</svg>
