<svg width="67" height="67" viewBox="0 0 67 67" fill="none" xmlns="http://www.w3.org/2000/svg">
<path d="M33.6172 18.2432C35.274 18.2432 36.6172 16.9 36.6172 15.2432C36.6172 13.5863 35.274 12.2432 33.6172 12.2432C31.9603 12.2432 30.6172 13.5863 30.6172 15.2432C30.6172 16.9 31.9603 18.2432 33.6172 18.2432Z" fill="black"/>
<path d="M15.6172 48.2432H51.6172V54.2432H15.6172V48.2432ZM27.6172 32.7332L35.9932 41.1152L47.7892 29.3102L51.6172 33.2432V21.2432H39.6172L43.5472 25.0682L35.9902 32.6252L27.6172 24.2432L15.6172 36.2432L19.8592 40.4852L27.6172 32.7332Z" fill="black"/>
<path d="M54.6172 6.24337H44.7232C44.426 5.80163 44.1056 5.37603 43.7632 4.96837L43.7332 4.93237C41.5282 2.36609 38.4275 0.737402 35.0632 0.378369C34.1076 0.198096 33.1268 0.198096 32.1712 0.378369C28.8069 0.737402 25.7061 2.36609 23.5012 4.93237L23.4712 4.96837C23.1289 5.37506 22.8084 5.79966 22.5112 6.24037V6.24337H12.6172C10.231 6.24575 7.94317 7.19473 6.25586 8.88204C4.56855 10.5694 3.61957 12.8572 3.61719 15.2434V57.2434C3.61957 59.6296 4.56855 61.9174 6.25586 63.6047C7.94317 65.292 10.231 66.241 12.6172 66.2434H54.6172C57.0034 66.241 59.2912 65.292 60.9785 63.6047C62.6658 61.9174 63.6148 59.6296 63.6172 57.2434V15.2434C63.6148 12.8572 62.6658 10.5694 60.9785 8.88204C59.2912 7.19473 57.0034 6.24575 54.6172 6.24337ZM57.6172 57.2434C57.6172 58.039 57.3011 58.8021 56.7385 59.3647C56.1759 59.9273 55.4128 60.2434 54.6172 60.2434H12.6172C11.8215 60.2434 11.0585 59.9273 10.4959 59.3647C9.93326 58.8021 9.61719 58.039 9.61719 57.2434V15.2434C9.61719 14.4477 9.93326 13.6847 10.4959 13.122C11.0585 12.5594 11.8215 12.2434 12.6172 12.2434H26.2672C26.6115 10.5479 27.5313 9.02366 28.8708 7.9288C30.2103 6.83395 31.8872 6.23585 33.6172 6.23585C35.3472 6.23585 37.0241 6.83395 38.3636 7.9288C39.7031 9.02366 40.6229 10.5479 40.9672 12.2434H54.6172C55.4128 12.2434 56.1759 12.5594 56.7385 13.122C57.3011 13.6847 57.6172 14.4477 57.6172 15.2434V57.2434Z" fill="black"/>
</svg>
