<svg width="16" height="16" viewBox="0 0 16 16" fill="none" xmlns="http://www.w3.org/2000/svg">
<path d="M6.75 0.015625H9.25C9.48044 0.015625 9.70795 0.0688182 9.91406 0.171875C10.1202 0.274932 10.2992 0.425021 10.4375 0.609375L11.4873 2.00977L11.4795 2.01562H14.75C14.8122 2.01562 14.8721 2.04003 14.916 2.08398C14.96 2.12794 14.9844 2.18784 14.9844 2.25V2.75C14.9844 2.81216 14.96 2.87206 14.916 2.91602C14.8721 2.95997 14.8122 2.98438 14.75 2.98438H14.1455L14.1436 2.99902L13.1064 14.6328C13.0732 15.0019 12.9033 15.3456 12.6299 15.5957C12.3563 15.8458 11.9986 15.9843 11.6279 15.9844H4.37207C4.00145 15.9843 3.64366 15.8458 3.37012 15.5957C3.09666 15.3456 2.92675 15.0019 2.89355 14.6328L1.85645 2.99902L1.85449 2.98438H1.25C1.18784 2.98438 1.12794 2.95997 1.08398 2.91602C1.04003 2.87206 1.01562 2.81216 1.01562 2.75V2.25C1.01562 2.18784 1.04003 2.12794 1.08398 2.08398C1.12794 2.04003 1.18784 2.01562 1.25 2.01562H4.5V2.02637L4.5127 2.00977L5.5625 0.609375C5.70076 0.425022 5.87982 0.274932 6.08594 0.171875C6.29205 0.0688182 6.51956 0.015625 6.75 0.015625ZM2.82812 3.00098L3.85938 14.5449C3.86999 14.6734 3.92846 14.7936 4.02344 14.8809C4.09463 14.9462 4.1826 14.9893 4.27637 15.0068L4.37207 15.0156H11.6279C11.7569 15.016 11.8816 14.968 11.9766 14.8809C12.0715 14.7936 12.13 14.6734 12.1406 14.5449L13.1719 3.00098L13.1729 2.98438H2.82715L2.82812 3.00098ZM6.63184 0.998047C6.59307 1.00724 6.5554 1.02113 6.51953 1.03906C6.44809 1.07478 6.38605 1.12671 6.33789 1.19043L5.7373 1.99023L5.71875 2.01562H10.2812L10.2627 1.99023L9.66211 1.19043C9.61395 1.12671 9.55191 1.07478 9.48047 1.03906C9.40892 1.00329 9.32999 0.984623 9.25 0.984375H6.75L6.63184 0.998047Z" fill="#6A6A65" stroke="#6A6A65" stroke-width="0.03125"/>
</svg>
