<svg width="25" height="25" viewBox="0 0 25 25" fill="none" xmlns="http://www.w3.org/2000/svg">
<path d="M8.63587 9.88447L8.63563 11.8845L5.63563 11.8848L5.63452 20.8848L19.6345 20.8833L19.6356 11.8833L16.6356 11.8836L16.6359 9.88361L19.6359 9.88328C20.1663 9.88323 20.675 10.0939 21.05 10.4689C21.425 10.8439 21.6357 11.3526 21.6356 11.8831L21.6345 20.8831C21.6345 21.4135 21.4237 21.9222 21.0486 22.2973C20.6734 22.6725 20.1647 22.8832 19.6343 22.8833L5.63427 22.8848C5.10384 22.8849 4.59516 22.6742 4.22013 22.2992C3.8451 21.9241 3.63445 21.4154 3.63452 20.885L3.63563 11.885C3.63569 11.3546 3.84647 10.8459 4.22159 10.4707C4.5967 10.0956 5.10544 9.88486 5.63587 9.8848L8.63587 9.88447ZM13.5207 3.35295L16.8793 6.71058C17.0669 6.8982 17.1723 7.15269 17.1722 7.41805C17.1722 7.68341 17.0668 7.93792 16.8791 8.12558C16.6914 8.31324 16.4369 8.41869 16.1716 8.41871C15.9062 8.41874 15.6517 8.31336 15.4641 8.12573L13.6363 6.29693L13.6351 15.8839C13.6351 16.1491 13.5297 16.4035 13.3422 16.5911C13.1546 16.7786 12.9002 16.884 12.635 16.884C12.3698 16.8841 12.1155 16.7787 11.9279 16.5912C11.7404 16.4037 11.6351 16.1494 11.6351 15.8841L11.6363 6.29715L9.80809 8.12635C9.71517 8.21927 9.60486 8.29298 9.48346 8.34327C9.36206 8.39357 9.23195 8.41946 9.10055 8.41948C8.96916 8.41949 8.83905 8.39363 8.71766 8.34336C8.59628 8.29309 8.48599 8.2194 8.39309 8.1265C8.30019 8.0336 8.2265 7.92331 8.17623 7.80192C8.12597 7.68053 8.1001 7.55043 8.10012 7.41903C8.10013 7.28764 8.12603 7.15753 8.17633 7.03613C8.22663 6.91473 8.30034 6.80442 8.39326 6.7115L11.7537 3.35314C11.9881 3.11893 12.3059 2.98734 12.6372 2.98731C12.9686 2.98727 13.2863 3.11878 13.5207 3.35295Z" fill="black"/>
</svg>
