<svg width="36" height="35" viewBox="0 0 36 35" fill="none" xmlns="http://www.w3.org/2000/svg">
<path d="M18.0742 0C27.7342 0 35.5742 7.84 35.5742 17.5C35.5742 27.16 27.7342 35 18.0742 35C8.41422 35 0.574219 27.16 0.574219 17.5C0.574219 7.84 8.41422 0 18.0742 0ZM7.61447 23.478C10.1835 27.3105 14.0405 29.75 18.3542 29.75C22.6662 29.75 26.525 27.3123 29.0922 23.478C26.1798 20.756 22.3406 19.2444 18.3542 19.25C14.3672 19.244 10.5274 20.7556 7.61447 23.478ZM18.0742 15.75C19.4666 15.75 20.802 15.1969 21.7865 14.2123C22.7711 13.2277 23.3242 11.8924 23.3242 10.5C23.3242 9.10761 22.7711 7.77226 21.7865 6.78769C20.802 5.80312 19.4666 5.25 18.0742 5.25C16.6818 5.25 15.3465 5.80312 14.3619 6.78769C13.3773 7.77226 12.8242 9.10761 12.8242 10.5C12.8242 11.8924 13.3773 13.2277 14.3619 14.2123C15.3465 15.1969 16.6818 15.75 18.0742 15.75Z" fill="black"/>
</svg>
