<svg width="26" height="18" viewBox="0 0 26 18" fill="none" xmlns="http://www.w3.org/2000/svg">
<path d="M23.9927 7.88551C24.3474 8.38251 24.5247 8.63218 24.5247 8.99968C24.5247 9.36834 24.3474 9.61684 23.9927 10.1138C22.3991 12.3492 18.3286 17.1663 12.8581 17.1663C7.38641 17.1663 3.31707 12.348 1.72341 10.1138C1.36874 9.61684 1.19141 9.36718 1.19141 8.99968C1.19141 8.63101 1.36874 8.38251 1.72341 7.88551C3.31707 5.65017 7.38757 0.833008 12.8581 0.833008C18.3297 0.833008 22.3991 5.65134 23.9927 7.88551Z" stroke="#828282" stroke-linecap="round" stroke-linejoin="round"/>
<path d="M16.3594 9C16.3594 8.07174 15.9906 7.1815 15.3342 6.52513C14.6779 5.86875 13.7876 5.5 12.8594 5.5C11.9311 5.5 11.0409 5.86875 10.3845 6.52513C9.72812 7.1815 9.35938 8.07174 9.35938 9C9.35938 9.92826 9.72812 10.8185 10.3845 11.4749C11.0409 12.1313 11.9311 12.5 12.8594 12.5C13.7876 12.5 14.6779 12.1313 15.3342 11.4749C15.9906 10.8185 16.3594 9.92826 16.3594 9Z" stroke="#828282" stroke-linecap="round" stroke-linejoin="round"/>
</svg>
